<svg id="Capa_5" data-name="Capa 5" xmlns="http://www.w3.org/2000/svg" viewBox="0 0 153 65.01"><defs><style>.cls-1{fill:#fff;}.cls-2{fill:#ccc;}</style></defs><path class="cls-1" d="M-1400.85-5809.9h-1.85l-4.24-10.48h-14.47l-4.54,10.48h-1.85l13.91-32.14Zm-6.77-12.16-6.32-15.61-6.75,15.61Z" transform="translate(1505 5848.71)"/><path class="cls-1" d="M-1388-5809.9h-1.7V-5842q12.18,0,13.23.05a12.07,12.07,0,0,1,2.78.58,9.06,9.06,0,0,1,3.29,1.9,8.59,8.59,0,0,1,2.55,6.58,7.15,7.15,0,0,1-2.11,5.36,11.51,11.51,0,0,1-7.94,2.65H-1388Zm10.15-16.65,1.32-.06a12.19,12.19,0,0,0,2.58-.52,7.45,7.45,0,0,0,2.82-1.58,5.61,5.61,0,0,0,1.6-4.2,6.88,6.88,0,0,0-2-5.29,9.18,9.18,0,0,0-6.26-2.07H-1388v13.72Z" transform="translate(1505 5848.71)"/><path class="cls-1" d="M-1352.42-5809.9h-1.7V-5842h1.7Z" transform="translate(1505 5848.71)"/><path class="cls-2" d="M-1427.26-5790.5h-.54v-10.26c2.6,0,4,0,4.23,0a3.48,3.48,0,0,1,.89.19,2.8,2.8,0,0,1,1,.6,2.74,2.74,0,0,1,.82,2.11,2.26,2.26,0,0,1-.68,1.71,3.65,3.65,0,0,1-2.54.85h-3.23Zm3.25-5.32.42,0a4.21,4.21,0,0,0,.83-.17,2.38,2.38,0,0,0,.9-.51,1.79,1.79,0,0,0,.51-1.34,2.19,2.19,0,0,0-.65-1.69,2.94,2.94,0,0,0-2-.66h-3.26v4.39Z" transform="translate(1505 5848.71)"/><path class="cls-2" d="M-1412.38-5790.5h-6.45v-10.26h.54v9.73h5.91Z" transform="translate(1505 5848.71)"/><path class="cls-2" d="M-1401.55-5790.5h-.59l-1.36-3.35h-4.63l-1.45,3.35h-.59l4.45-10.28Zm-2.17-3.89-2-5-2.16,5Z" transform="translate(1505 5848.71)"/><path class="cls-2" d="M-1397.75-5790.5h-.54v-9.72h-3.92v-.54h8.38v.54h-3.92Z" transform="translate(1505 5848.71)"/><path class="cls-2" d="M-1391.17-5790.5h-.54v-10.26h6.13v.54h-5.59v4.31h4.77v.54h-4.77Z" transform="translate(1505 5848.71)"/><path class="cls-2" d="M-1379.32-5790.37a4.62,4.62,0,0,1-2.52-.72,5.22,5.22,0,0,1-1.82-1.91,5.23,5.23,0,0,1-.68-2.65,5.22,5.22,0,0,1,.68-2.66,5.3,5.3,0,0,1,1.82-1.91,4.62,4.62,0,0,1,2.52-.71,4.62,4.62,0,0,1,2.53.71,5.3,5.3,0,0,1,1.82,1.91,5.22,5.22,0,0,1,.68,2.66,5.23,5.23,0,0,1-.68,2.65,5.22,5.22,0,0,1-1.82,1.91A4.63,4.63,0,0,1-1379.32-5790.37Zm0-.55a4.13,4.13,0,0,0,2.26-.64,4.67,4.67,0,0,0,1.62-1.71,4.71,4.71,0,0,0,.61-2.38,4.69,4.69,0,0,0-.61-2.38,4.7,4.7,0,0,0-1.62-1.72,4.13,4.13,0,0,0-2.26-.64,4.12,4.12,0,0,0-2.25.64,4.81,4.81,0,0,0-1.63,1.72,4.79,4.79,0,0,0-.61,2.38,4.82,4.82,0,0,0,.61,2.38,4.78,4.78,0,0,0,1.63,1.71A4.12,4.12,0,0,0-1379.32-5790.92Z" transform="translate(1505 5848.71)"/><path class="cls-2" d="M-1365.41-5790.5h-.65l-3.11-4.74h-2.66v4.74h-.53v-10.26h3.8a3.48,3.48,0,0,1,2.36.8,2.85,2.85,0,0,1,.83,2.12,2.32,2.32,0,0,1-.69,1.75,2.71,2.71,0,0,1-.92.57,4.5,4.5,0,0,1-1.55.28Zm-3.17-5.29h.41a4.21,4.21,0,0,0,.83-.17,2.14,2.14,0,0,0,.9-.51,1.76,1.76,0,0,0,.52-1.34,2.23,2.23,0,0,0-.65-1.73,2.85,2.85,0,0,0-2-.67h-3.29v4.43Z" transform="translate(1505 5848.71)"/><path class="cls-2" d="M-1352-5790.5h-.54v-8.94l-5,5.75-4.92-5.7v8.89h-.53v-10.33l5.46,6.33,5.58-6.35Z" transform="translate(1505 5848.71)"/><path class="cls-1" d="M-1442.81-5815c0,.89.24,1.64-.65,1.73l-6,.65a1.39,1.39,0,0,0-1.08.82c-.1.16,0,.33-.09.51a20.52,20.52,0,0,1-1.76,4.35,1.73,1.73,0,0,0,.19,1.95l4.11,5a1.75,1.75,0,0,1-.11,2.33l-2.94,2.93a1.71,1.71,0,0,1-2.32.12l-5-4.09a1.73,1.73,0,0,0-1.55-.32,1.79,1.79,0,0,0-.45.19,20.46,20.46,0,0,1-4.36,1.79,1.76,1.76,0,0,0-1.27,1.5l-.65,6.94c-.09.89-.83,2.07-1.73,2.07h-4.15c-.9,0-1.64-1.18-1.73-2.07l-.66-6.68a2,2,0,0,0-.81-1.43,2.12,2.12,0,0,0-.51-.28,20.46,20.46,0,0,1-4.35-1.84,1.74,1.74,0,0,0-2,.15l-5,4.08a1.72,1.72,0,0,1-2.32-.12l-2.94-2.94a1.75,1.75,0,0,1-.12-2.33l4.09-5a1.7,1.7,0,0,0,.33-1.55,2,2,0,0,0-.19-.46,20.43,20.43,0,0,1-1.8-4.35,1.74,1.74,0,0,0-1.49-1.27l-7.47-.65c-.9-.09-2.6-.84-2.6-1.73v-4.15c0-.9,1.7-1.64,2.59-1.73l7-.66a2.26,2.26,0,0,0,1.56-.81c.1-.17.31-.36.35-.55a20.39,20.39,0,0,1,1.86-4.31,1.73,1.73,0,0,0-.13-2l-4.07-5a1.71,1.71,0,0,1,.13-2.32l2.93-2.94a1.75,1.75,0,0,1,2.33-.12l5,4.09a1.7,1.7,0,0,0,1.55.33,1.86,1.86,0,0,0,.46-.19,20.3,20.3,0,0,1,4.36-1.8,1.72,1.72,0,0,0,1.26-1.49l.66-6.06c.08-.9.83-1.19,1.72-1.19h4.15c.9,0,1.64.29,1.73,1.19l.66,6.24a1.57,1.57,0,0,0,.82,1.21,1.4,1.4,0,0,0,.5.16,20.66,20.66,0,0,1,4.36,1.79,1.71,1.71,0,0,0,2-.18l5-4.09a1.74,1.74,0,0,1,2.33.11l2.93,2.94a1.73,1.73,0,0,1,.12,2.33l-4.09,5a1.78,1.78,0,0,0-.33,1.56,1.51,1.51,0,0,0,.2.45,21,21,0,0,1,1.79,4.36,1.73,1.73,0,0,0,1.5,1.26l5.52.66c.89.09.66.83.66,1.73v4.15Zm-.63-9.34-4.67-.54a21.38,21.38,0,0,0-.93-3l3.52-4.13a5.19,5.19,0,0,0-.28-7l-2.89-2.94a5.18,5.18,0,0,0-7-.35l-4.11,3.36a25.53,25.53,0,0,0-3-1.24l-.54-4.58c-.27-2.67-2.5-4-5.18-4h-4.15c-2.69,0-4.92,1.31-5.19,4l-.54,4.94a21.33,21.33,0,0,0-3,1.06l-4.12-3.45a5.19,5.19,0,0,0-7,.31l-2.94,2.91a5.18,5.18,0,0,0-.35,7l3.36,4.12a23.91,23.91,0,0,0-1.24,3l-6,.54c-2.67.27-5.39,2.5-5.39,5.18v4.15c0,2.69,2.72,4.92,5.4,5.19l5.64.54a27,27,0,0,0,1.41,3l-3.27,4.12a5.2,5.2,0,0,0,.4,7l3,2.94a5.21,5.21,0,0,0,7,.35l4.13-3.36a26.27,26.27,0,0,0,3,1.24l.54,5.47a5.37,5.37,0,0,0,5.19,4.86h4.15a5.35,5.35,0,0,0,5.19-4.86l.54-5.38a25.84,25.84,0,0,0,3-1.28l4.12,3.33a5.19,5.19,0,0,0,7-.36l2.94-2.94a5.21,5.21,0,0,0,.35-7l-3.36-4.12a26.27,26.27,0,0,0,1.24-3l4-.54c2.67-.28,3.45-2.51,3.45-5.19v-4.15C-1440-5821.85-1440.77-5824.08-1443.44-5824.35Z" transform="translate(1505 5848.71)"/><path class="cls-2" d="M-1470.55-5826.77a9.7,9.7,0,0,0-9.68,9.68,9.69,9.69,0,0,0,9.68,9.68,9.69,9.69,0,0,0,9.68-9.68A9.69,9.69,0,0,0-1470.55-5826.77Z" transform="translate(1505 5848.71)"/><path class="cls-1" d="M-1442.81-5815c0,.89.24,1.64-.65,1.73l-6,.65a1.39,1.39,0,0,0-1.08.82c-.1.16,0,.33-.09.51a20.52,20.52,0,0,1-1.76,4.35,1.73,1.73,0,0,0,.19,1.95l4.11,5a1.75,1.75,0,0,1-.11,2.33l-2.94,2.93a1.71,1.71,0,0,1-2.32.12l-5-4.09a1.73,1.73,0,0,0-1.55-.32,1.79,1.79,0,0,0-.45.19,20.46,20.46,0,0,1-4.36,1.79,1.76,1.76,0,0,0-1.27,1.5l-.65,6.94c-.09.89-.83,2.07-1.73,2.07h-4.15c-.9,0-1.64-1.18-1.73-2.07l-.66-6.68a2,2,0,0,0-.81-1.43,2.12,2.12,0,0,0-.51-.28,20.46,20.46,0,0,1-4.35-1.84,1.74,1.74,0,0,0-2,.15l-5,4.08a1.72,1.72,0,0,1-2.32-.12l-2.94-2.94a1.75,1.75,0,0,1-.12-2.33l4.09-5a1.7,1.7,0,0,0,.33-1.55,2,2,0,0,0-.19-.46,20.43,20.43,0,0,1-1.8-4.35,1.74,1.74,0,0,0-1.49-1.27l-7.47-.65c-.9-.09-2.6-.84-2.6-1.73v-4.15c0-.9,1.7-1.64,2.59-1.73l7-.66a2.26,2.26,0,0,0,1.56-.81c.1-.17.31-.36.35-.55a20.39,20.39,0,0,1,1.86-4.31,1.73,1.73,0,0,0-.13-2l-4.07-5a1.71,1.71,0,0,1,.13-2.32l2.93-2.94a1.75,1.75,0,0,1,2.33-.12l5,4.09a1.7,1.7,0,0,0,1.55.33,1.86,1.86,0,0,0,.46-.19,20.3,20.3,0,0,1,4.36-1.8,1.72,1.72,0,0,0,1.26-1.49l.66-6.06c.08-.9.83-1.19,1.72-1.19h4.15c.9,0,1.64.29,1.73,1.19l.66,6.24a1.57,1.57,0,0,0,.82,1.21,1.4,1.4,0,0,0,.5.16,20.66,20.66,0,0,1,4.36,1.79,1.71,1.71,0,0,0,2-.18l5-4.09a1.74,1.74,0,0,1,2.33.11l2.93,2.94a1.73,1.73,0,0,1,.12,2.33l-4.09,5a1.78,1.78,0,0,0-.33,1.56,1.51,1.51,0,0,0,.2.45,21,21,0,0,1,1.79,4.36,1.73,1.73,0,0,0,1.5,1.26l5.52.66c.89.09.66.83.66,1.73v4.15Zm-.63-9.34-4.67-.54a21.38,21.38,0,0,0-.93-3l3.52-4.13a5.19,5.19,0,0,0-.28-7l-2.89-2.94a5.18,5.18,0,0,0-7-.35l-4.11,3.36a25.53,25.53,0,0,0-3-1.24l-.54-4.58c-.27-2.67-2.5-4-5.18-4h-4.15c-2.69,0-4.92,1.31-5.19,4l-.54,4.94a21.33,21.33,0,0,0-3,1.06l-4.12-3.45a5.19,5.19,0,0,0-7,.31l-2.94,2.91a5.18,5.18,0,0,0-.35,7l3.36,4.12a23.91,23.91,0,0,0-1.24,3l-6,.54c-2.67.27-5.39,2.5-5.39,5.18v4.15c0,2.69,2.72,4.92,5.4,5.19l5.64.54a27,27,0,0,0,1.41,3l-3.27,4.12a5.2,5.2,0,0,0,.4,7l3,2.94a5.21,5.21,0,0,0,7,.35l4.13-3.36a26.27,26.27,0,0,0,3,1.24l.54,5.47a5.37,5.37,0,0,0,5.19,4.86h4.15a5.35,5.35,0,0,0,5.19-4.86l.54-5.38a25.84,25.84,0,0,0,3-1.28l4.12,3.33a5.19,5.19,0,0,0,7-.36l2.94-2.94a5.21,5.21,0,0,0,.35-7l-3.36-4.12a26.27,26.27,0,0,0,1.24-3l4-.54c2.67-.28,3.45-2.51,3.45-5.19v-4.15C-1440-5821.85-1440.77-5824.08-1443.44-5824.35Z" transform="translate(1505 5848.71)"/><path class="cls-2" d="M-1470.55-5826a8.91,8.91,0,0,0-8.9,8.9,8.92,8.92,0,0,0,8.9,8.91,8.92,8.92,0,0,0,8.91-8.91A8.92,8.92,0,0,0-1470.55-5826Z" transform="translate(1505 5848.71)"/></svg>